<?xml version="1.0" standalone="no"?>
<!DOCTYPE svg PUBLIC "-//W3C//DTD SVG 20010904//EN"
 "http://www.w3.org/TR/2001/REC-SVG-20010904/DTD/svg10.dtd">
<svg version="1.0" xmlns="http://www.w3.org/2000/svg"
 width="480.000000pt" height="480.000000pt" viewBox="0 0 480.000000 480.000000"
 preserveAspectRatio="xMidYMid meet">

<g transform="translate(0.000000,480.000000) scale(0.100000,-0.100000)"
fill="#000000" stroke="none">
<path d="M4248 4793 c7 -3 16 -2 19 1 4 3 -2 6 -13 5 -11 0 -14 -3 -6 -6z"/>
<path d="M4317 4783 c3 -10 10 -23 15 -29 5 -7 3 -17 -5 -26 -7 -7 -12 -19 -9
-26 2 -7 -2 -10 -12 -6 -9 3 -16 1 -16 -5 0 -6 11 -11 25 -11 21 0 25 -4 23
-27 -3 -52 2 -84 12 -78 7 4 8 -3 4 -21 -6 -23 -4 -26 10 -21 9 4 16 2 16 -2
0 -5 -7 -11 -15 -15 -8 -3 -15 -10 -15 -16 0 -5 7 -10 15 -10 8 0 15 -4 15 -9
0 -5 -10 -7 -22 -3 -16 4 -19 2 -13 -8 5 -8 9 -44 11 -81 2 -59 0 -68 -17 -72
-10 -3 -19 -13 -19 -24 0 -13 2 -15 9 -5 7 11 9 11 13 0 6 -18 -17 -60 -28
-50 -5 4 0 -3 10 -16 11 -12 16 -25 13 -29 -4 -3 -2 -12 4 -20 9 -10 8 -13 -1
-13 -8 0 -10 -8 -6 -24 4 -16 1 -26 -9 -30 -8 -3 -15 -11 -15 -17 0 -6 -10
-21 -22 -34 -18 -18 -21 -35 -22 -101 -1 -43 3 -85 8 -92 6 -8 5 -17 -2 -24
-19 -19 -14 -49 8 -55 24 -6 25 -12 5 -27 -9 -6 -16 -26 -18 -44 -2 -30 -4
-32 -30 -26 -27 6 -28 4 -22 -17 4 -13 14 -29 21 -37 19 -19 17 -29 -7 -35
-14 -4 -18 -10 -13 -19 5 -7 7 -23 6 -34 -2 -12 4 -24 13 -27 13 -5 13 -10 3
-26 -11 -18 -13 -18 -25 -3 -14 19 -14 17 -16 -51 -2 -34 -6 -46 -15 -42 -17
6 -30 -32 -27 -78 2 -20 -1 -35 -6 -32 -5 4 -6 0 -3 -8 3 -8 -3 -17 -13 -21
-13 -6 -14 -9 -4 -15 10 -7 8 -17 -9 -51 -12 -23 -19 -48 -16 -56 3 -7 -2 -17
-10 -22 -10 -6 -14 -20 -12 -43 2 -21 -2 -38 -11 -45 -11 -8 -12 -18 -4 -41 8
-22 7 -36 -2 -54 -8 -13 -17 -45 -20 -71 -6 -42 -10 -296 -5 -308 1 -3 4 -25
5 -50 7 -109 17 -185 25 -195 4 -5 11 -41 15 -80 5 -38 14 -79 22 -91 7 -12
10 -29 7 -39 -5 -12 -4 -16 3 -12 6 4 16 -12 23 -38 7 -25 16 -45 21 -45 8 0
25 -67 21 -82 -1 -5 2 -8 8 -8 5 0 10 -9 10 -19 0 -10 7 -21 15 -24 14 -6 61
-95 57 -109 -1 -5 5 -8 13 -8 8 0 15 -7 15 -15 0 -21 37 -94 66 -127 12 -15
34 -52 49 -83 15 -30 32 -55 37 -55 5 0 8 -9 6 -19 -2 -10 4 -27 14 -37 9 -11
18 -28 20 -39 1 -11 8 -23 13 -27 6 -5 5 -11 -4 -17 -11 -7 -8 -13 13 -32 14
-12 26 -29 26 -36 0 -7 3 -13 8 -13 10 0 42 -58 42 -76 0 -8 5 -14 10 -14 6 0
10 -8 10 -18 0 -10 12 -34 26 -53 30 -40 54 -94 54 -120 0 -11 6 -19 14 -19
12 0 31 -52 27 -73 -2 -14 30 -63 50 -75 19 -12 19 32 19 1993 l0 2005 -245 0
c-228 0 -244 -1 -238 -17z m123 -234 c0 -5 -9 -9 -20 -9 -11 0 -20 6 -20 14 0
9 7 12 20 9 11 -3 20 -9 20 -14z m-13 -35 c-3 -3 -12 -4 -19 -1 -8 3 -5 6 6 6
11 1 17 -2 13 -5z"/>
<path d="M3840 4780 c0 -5 5 -10 10 -10 6 0 10 5 10 10 0 6 -4 10 -10 10 -5 0
-10 -4 -10 -10z"/>
<path d="M1780 4749 c0 -5 5 -7 10 -4 6 3 10 8 10 11 0 2 -4 4 -10 4 -5 0 -10
-5 -10 -11z"/>
<path d="M4282 4749 c2 -7 10 -15 17 -17 8 -3 12 1 9 9 -2 7 -10 15 -17 17 -8
3 -12 -1 -9 -9z"/>
<path d="M2070 4696 c0 -12 10 -16 40 -16 22 0 40 -4 40 -10 0 -10 -31 -16
-125 -24 -33 -3 -79 -14 -102 -26 -23 -11 -53 -20 -67 -20 -27 0 -44 -16 -24
-22 6 -2 29 0 50 6 31 8 45 7 71 -6 20 -9 52 -15 85 -13 29 1 55 -2 58 -6 3
-5 10 -7 15 -4 12 8 71 -34 64 -45 -3 -5 -15 -7 -28 -4 -12 2 -59 8 -104 14
-46 5 -91 13 -100 19 -10 5 -39 10 -63 10 -25 1 -56 2 -70 3 -17 2 -25 -2 -25
-12 0 -9 11 -16 28 -18 42 -5 32 -19 -19 -26 -26 -3 -52 -10 -58 -15 -22 -16
-55 -19 -75 -4 -19 12 -22 12 -27 0 -3 -9 -16 -18 -30 -21 -34 -9 -30 -26 6
-26 21 0 30 -5 30 -16 0 -8 5 -12 10 -9 6 3 17 0 25 -8 8 -9 33 -18 57 -22 34
-6 44 -4 55 11 9 12 16 15 21 8 4 -5 25 -11 47 -13 36 -2 84 -30 168 -100 17
-14 17 -13 8 11 -5 14 -7 29 -4 32 4 3 -2 15 -12 26 -22 24 -12 39 14 23 13
-8 21 -9 29 -1 9 9 17 7 32 -7 11 -10 20 -15 20 -11 0 14 79 -35 85 -53 3 -10
14 -26 25 -36 17 -15 20 -15 20 -3 0 8 -9 25 -20 38 -11 12 -17 27 -14 32 3 5
-2 18 -12 29 -16 17 -16 19 0 19 18 0 57 -20 69 -35 4 -5 5 -19 2 -31 -5 -24
27 -44 73 -44 18 0 37 -12 57 -35 16 -19 34 -35 40 -35 6 0 18 -24 27 -52 15
-48 16 -50 17 -20 1 17 6 32 11 32 6 0 10 10 10 23 0 22 0 22 20 -3 14 -18 18
-37 15 -67 -3 -42 7 -58 19 -28 3 8 10 15 17 15 6 0 8 -7 5 -17 -4 -9 -1 -20
6 -24 8 -5 11 -23 9 -46 -2 -31 0 -36 10 -25 21 20 28 14 22 -22 -3 -19 -1
-42 5 -51 7 -14 12 -2 22 56 6 41 17 94 23 119 l11 45 9 -42 c8 -42 21 -55 30
-30 2 6 0 25 -5 42 -4 16 -8 45 -8 64 0 50 24 25 40 -44 10 -42 10 -57 1 -69
-8 -10 -9 -16 -1 -21 5 -3 10 -32 10 -63 1 -126 4 -181 11 -177 11 7 21 73 22
150 2 55 5 70 17 70 16 0 17 -15 6 -62 -7 -27 -6 -27 10 -11 13 12 19 38 22
85 4 57 6 64 14 43 10 -24 11 -24 18 -5 4 11 6 31 4 45 -12 89 -12 142 1 146
7 3 11 15 8 27 -4 22 -4 22 12 2 39 -46 47 -85 40 -184 -7 -98 -18 -129 -64
-191 -31 -40 -54 -90 -43 -90 4 0 21 23 37 50 16 28 35 50 42 50 7 0 13 8 13
17 0 13 3 14 11 6 8 -8 7 -24 -7 -60 -9 -26 -22 -53 -27 -60 -5 -7 -7 -18 -5
-24 4 -12 48 54 48 72 0 5 4 9 9 9 5 0 7 -9 4 -20 -3 -11 -1 -20 5 -20 6 0 14
17 17 38 7 38 34 107 35 86 0 -7 6 -14 14 -17 11 -5 18 8 26 48 6 30 15 57 19
60 5 2 6 25 3 50 -3 28 0 50 8 60 7 9 10 19 6 22 -4 4 -11 1 -16 -7 -8 -13
-10 -12 -10 2 0 9 9 20 20 23 11 3 20 11 20 17 0 30 13 -7 16 -44 2 -29 0 -37
-5 -23 -5 12 -7 -5 -6 -45 4 -79 5 -83 15 -45 7 29 8 28 9 -11 0 -22 -6 -49
-14 -60 -19 -25 -19 -34 0 -34 21 0 19 -19 -6 -59 -16 -27 -17 -32 -5 -28 15
6 15 3 0 -31 -8 -20 -19 -41 -25 -47 -14 -14 -11 -29 4 -16 8 6 17 8 21 4 4
-4 4 0 1 9 -4 9 -2 19 4 23 14 8 14 -19 2 -63 -13 -45 6 -41 25 6 8 20 19 46
24 57 4 11 11 28 14 38 3 10 10 16 15 13 17 -11 70 57 87 111 9 29 21 56 25
59 5 3 10 17 10 32 1 17 3 20 6 10 8 -30 -39 -159 -66 -184 -20 -19 -23 -26
-13 -36 10 -10 15 -10 22 2 24 40 37 56 63 83 36 38 46 28 18 -18 -11 -20 -21
-42 -21 -49 0 -7 -13 -22 -30 -34 -16 -13 -30 -29 -30 -37 0 -8 -4 -15 -8 -15
-5 0 -18 -13 -30 -30 -30 -41 -12 -38 34 5 39 37 52 40 36 8 -5 -10 -7 -24 -5
-30 3 -7 0 -13 -6 -13 -6 0 -11 -5 -11 -11 0 -7 -8 -18 -17 -25 -17 -13 -17
-13 0 -14 9 0 17 4 17 9 0 5 14 12 30 16 17 4 30 11 30 16 0 5 6 9 14 9 8 0
16 6 19 13 2 6 8 8 13 4 5 -5 -1 -26 -13 -49 l-22 -40 21 14 c12 8 25 21 29
29 3 8 16 34 28 59 20 42 25 22 6 -24 -7 -16 -5 -18 8 -13 21 8 21 0 1 -59
-24 -70 -8 -65 26 8 22 46 34 94 42 159 13 102 26 130 47 97 6 -10 9 -28 6
-38 -3 -11 -2 -28 4 -38 7 -13 6 -35 -4 -71 -17 -64 0 -66 30 -2 11 23 24 39
28 35 4 -4 7 0 7 9 0 10 5 17 11 17 6 0 9 -3 7 -7 -38 -73 -63 -193 -42 -193
11 0 40 94 55 175 27 145 29 159 18 170 -13 13 -29 -11 -29 -44 0 -18 -3 -22
-11 -14 -6 6 -8 25 -4 47 6 32 10 35 31 30 18 -5 24 -2 24 10 0 9 -6 15 -12
13 -8 -1 -12 6 -11 18 1 11 5 53 7 93 5 69 4 72 -15 62 -18 -10 -19 -9 -13 14
3 15 2 26 -4 26 -12 0 -23 -53 -12 -60 11 -7 9 -150 -1 -150 -5 0 -9 10 -9 22
0 29 -22 89 -38 107 -8 8 -11 27 -9 47 3 20 1 31 -5 28 -14 -9 -37 27 -38 60
0 24 -2 27 -15 16 -12 -10 -16 -8 -24 13 -5 14 -14 28 -19 31 -14 8 -1 -47 15
-62 14 -15 15 -27 4 -57 -6 -16 -9 -13 -13 16 -4 19 -16 56 -28 81 -12 25 -20
52 -18 60 2 7 -1 14 -7 15 -6 1 -9 -20 -7 -51 2 -44 -2 -61 -23 -91 -20 -31
-25 -34 -25 -17 0 31 -53 187 -91 265 -32 69 -49 90 -49 63 0 -8 5 -18 10 -21
6 -3 10 -15 10 -26 0 -10 -4 -19 -10 -19 -5 0 -10 7 -10 15 0 8 -4 15 -10 15
-5 0 -10 -5 -10 -12 0 -6 -9 -2 -20 10 -12 12 -26 22 -32 22 -14 0 -93 65
-140 115 -20 22 -40 36 -45 32 -4 -5 10 -25 32 -46 46 -44 86 -94 80 -99 -2
-3 -11 -2 -20 1 -8 4 -17 5 -19 4 -1 -1 -10 4 -20 12 -9 8 -19 11 -22 8 -3 -3
3 -10 14 -16 20 -10 92 -79 92 -88 0 -2 -13 -2 -29 0 -17 3 -46 21 -66 41 -19
20 -40 36 -46 36 -6 0 -29 16 -52 35 -40 35 -67 45 -67 25 0 -5 5 -10 10 -10
14 0 70 -51 70 -64 0 -8 -3 -8 -8 -1 -4 6 -34 19 -67 30 -33 10 -98 31 -145
47 -47 15 -95 28 -107 28 -13 0 -23 6 -23 13 0 25 -45 36 -145 35 -55 -1 -160
2 -232 6 -119 7 -133 7 -133 -8z m817 -177 c19 -12 32 -24 29 -27 -3 -2 -11 0
-18 5 -7 6 -24 14 -38 17 -18 6 -21 5 -10 -3 8 -5 11 -13 7 -17 -12 -12 -28
11 -21 29 8 21 10 21 51 -4z m-543 -14 c20 -13 36 -20 36 -14 0 18 23 4 40
-23 33 -54 65 -98 73 -98 15 0 6 22 -20 46 -14 13 -24 27 -21 30 9 8 67 -45
99 -92 28 -42 29 -43 7 -35 -13 4 -27 18 -33 29 -10 24 -20 28 -30 13 -11 -19
-225 66 -225 89 0 4 -16 16 -36 27 -49 25 -47 38 4 35 25 -2 42 1 42 7 0 18
25 13 64 -14z m643 10 c8 -9 13 -18 11 -21 -3 -2 -13 5 -23 16 -21 23 -11 27
12 5z m295 -72 c6 -7 7 -13 2 -13 -15 1 -45 50 -38 62 5 7 10 3 16 -12 5 -13
14 -30 20 -37z m-93 -8 c0 -5 -6 -1 -14 9 -8 11 -15 27 -15 35 1 17 29 -26 29
-44z m-1249 36 c0 -4 -5 -13 -10 -21 -6 -10 -10 -11 -10 -2 0 6 -9 12 -19 12
-11 0 -22 4 -25 9 -3 5 10 9 29 8 19 -1 35 -3 35 -6z m1000 -6 c10 -13 9 -15
-9 -15 -12 0 -21 6 -21 15 0 8 4 15 9 15 5 0 14 -7 21 -15z m95 -5 c3 -5 2
-10 -4 -10 -5 0 -13 5 -16 10 -3 6 -2 10 4 10 5 0 13 -4 16 -10z m-1275 -52
c0 -13 -30 -9 -55 8 -13 9 -29 13 -35 9 -5 -3 -10 -2 -10 4 0 12 36 24 49 16
5 -3 13 0 17 6 4 8 11 4 20 -12 7 -13 13 -27 14 -31z m100 37 c7 -9 10 -18 7
-22 -8 -7 -37 15 -37 28 0 14 16 11 30 -6z m705 -26 c22 -25 40 -37 44 -31 4
6 11 8 17 4 18 -11 44 -69 44 -97 0 -39 -36 -33 -54 9 -8 18 -19 37 -25 40 -6
4 -11 16 -11 26 0 11 -17 35 -37 55 -21 19 -33 35 -27 35 7 0 28 -19 49 -41z
m315 -13 c0 -11 -3 -16 -8 -10 -4 5 -18 22 -32 37 l-25 29 32 -19 c20 -10 33
-26 33 -37z m247 32 c6 -5 9 -16 6 -25 -3 -8 0 -19 7 -23 17 -10 4 -31 -15
-24 -16 6 -55 65 -55 82 0 11 38 5 57 -10z m-97 -13 c0 -8 5 -15 10 -15 18 0
32 -51 19 -67 -16 -18 -26 -7 -43 50 -12 40 -12 47 0 47 8 0 14 -7 14 -15z
m-65 -5 c3 -5 1 -10 -4 -10 -6 0 -11 5 -11 10 0 6 2 10 4 10 3 0 8 -4 11 -10z
m-655 -20 c8 -5 12 -11 10 -14 -3 -2 -14 2 -24 10 -22 15 -10 19 14 4z m613
-25 c9 -13 13 -26 8 -29 -8 -5 -41 34 -41 49 0 12 16 3 33 -20z m64 -10 c9
-24 -1 -27 -15 -5 -8 13 -8 20 -2 20 6 0 13 -7 17 -15z m132 -73 c1 -7 -3 -10
-9 -7 -5 3 -10 21 -9 38 1 31 1 31 9 7 4 -14 8 -31 9 -38z m-594 5 c16 -18 32
-31 36 -30 9 3 21 -45 14 -56 -2 -5 0 -23 6 -40 16 -46 3 -50 -15 -6 -12 28
-13 42 -5 57 9 17 8 19 -10 13 -14 -4 -26 0 -38 14 -10 12 -23 21 -30 21 -14
0 -43 39 -43 57 0 23 53 4 85 -30z m343 18 c-3 -3 -9 2 -12 12 -6 14 -5 15 5
6 7 -7 10 -15 7 -18z m162 -56 c0 -11 -4 -19 -10 -19 -5 0 -10 -5 -10 -11 0
-5 5 -7 10 -4 23 14 -5 -106 -31 -137 l-21 -23 3 65 c2 36 -1 93 -5 128 -7 52
-6 61 6 57 8 -3 20 -18 26 -33 10 -24 11 -23 6 18 l-5 45 16 -34 c8 -18 15
-42 15 -52z m-643 45 c-9 -9 -28 6 -21 18 4 6 10 6 17 -1 6 -6 8 -13 4 -17z
m563 6 c0 -11 -2 -20 -4 -20 -2 0 -6 9 -9 20 -3 11 -1 20 4 20 5 0 9 -9 9 -20z
m122 -32 c2 -6 2 -24 0 -41 -6 -35 -22 -17 -22 26 0 27 15 38 22 15z m158 -49
c0 -31 4 -48 10 -44 6 3 11 -2 11 -12 1 -18 1 -24 -9 -57 -3 -12 -1 -17 5 -13
15 9 4 -32 -15 -58 l-14 -20 7 20 c21 56 16 71 -14 43 -11 -11 -13 -1 -7 57 3
39 6 87 6 108 0 23 4 36 10 32 6 -3 10 -29 10 -56z m-594 0 c9 -19 14 -58 13
-116 0 -87 -1 -88 -14 -50 -8 21 -14 57 -14 80 0 39 -7 72 -27 122 -7 18 -6
19 10 6 9 -8 24 -27 32 -42z m94 4 c0 -7 -4 -13 -9 -13 -10 0 -21 36 -13 45 7
7 22 -15 22 -32z m37 15 c-3 -8 -6 -5 -6 6 -1 11 2 17 5 13 3 -3 4 -12 1 -19z
m-298 -22 c13 -13 18 -27 13 -30 -6 -3 -12 1 -16 9 -3 8 -12 15 -21 15 -8 0
-15 7 -15 15 0 22 13 19 39 -9z m821 2 c0 -19 -2 -20 -10 -8 -13 19 -13 30 0
30 6 0 10 -10 10 -22z m167 -35 c-3 -10 -5 -4 -5 12 0 17 2 24 5 18 2 -7 2
-21 0 -30z m-643 -28 c-10 -95 -26 -101 -39 -14 -7 45 -6 46 18 42 18 -4 23
-10 21 -28z m723 3 c-3 -8 -6 -5 -6 6 -1 11 2 17 5 13 3 -3 4 -12 1 -19z
m-147 -27 c0 -45 -17 -100 -37 -121 -14 -13 -14 -13 -5 5 5 11 13 50 17 88 8
72 25 92 25 28z m-331 -21 c1 -13 0 -13 -9 0 -5 8 -9 24 -9 35 l0 20 9 -20 c5
-11 9 -27 9 -35z m401 9 c0 -11 -4 -17 -10 -14 -6 4 -7 -6 -4 -25 4 -19 2 -30
-5 -30 -12 0 -16 82 -5 93 11 11 24 -3 24 -24z m51 -72 c-7 -7 -9 -1 -7 19 6
46 9 51 13 20 3 -16 0 -33 -6 -39z m-208 33 c3 -11 1 -23 -4 -26 -5 -3 -9 6
-9 20 0 31 6 34 13 6z m-256 -37 c-3 -10 -5 -2 -5 17 0 19 2 27 5 18 2 -10 2
-26 0 -35z m-226 4 c-10 -9 -11 -8 -5 6 3 10 9 15 12 12 3 -3 0 -11 -7 -18z
m770 -24 c0 -10 3 -30 5 -45 3 -16 0 -28 -6 -28 -5 0 -10 1 -11 3 -9 44 -9 87
0 87 6 0 11 -8 12 -17z m-113 -35 c-2 -67 -78 -172 -78 -108 0 11 4 20 8 20 5
0 14 16 22 35 7 19 17 32 21 29 4 -2 10 9 14 26 9 39 14 38 13 -2z m-441 -10
c-3 -8 -6 -5 -6 6 -1 11 2 17 5 13 3 -3 4 -12 1 -19z m195 -13 c5 -21 2 -38
-10 -59 -20 -35 -47 -48 -39 -20 3 11 8 41 12 67 7 53 24 59 37 12z m153 -114
c-3 -6 -11 -11 -17 -11 -6 0 -6 6 2 15 14 17 26 13 15 -4z m265 9 c0 -5 -4
-10 -10 -10 -5 0 -10 5 -10 10 0 6 5 10 10 10 6 0 10 -4 10 -10z m-180 -31 c0
-11 -4 -18 -10 -14 -5 3 -7 12 -3 20 7 21 13 19 13 -6z m-92 -29 c-7 -10 -14
-18 -15 -16 -6 6 9 36 18 36 5 0 4 -9 -3 -20z"/>
<path d="M3212 3940 c0 -14 2 -19 5 -12 2 6 2 18 0 25 -3 6 -5 1 -5 -13z"/>
<path d="M4290 4640 c0 -5 5 -10 11 -10 6 0 9 -7 5 -15 -3 -8 -1 -15 4 -15 5
0 9 11 8 25 -2 23 -28 37 -28 15z"/>
<path d="M2915 4631 c-7 -12 12 -24 25 -16 11 7 4 25 -10 25 -5 0 -11 -4 -15
-9z"/>
<path d="M2945 4590 c3 -5 8 -10 11 -10 2 0 4 5 4 10 0 6 -5 10 -11 10 -5 0
-7 -4 -4 -10z"/>
<path d="M1497 4563 c-14 -13 -6 -33 13 -33 13 0 20 7 20 20 0 19 -20 27 -33
13z"/>
<path d="M1700 4560 c0 -5 5 -10 10 -10 6 0 10 5 10 10 0 6 -4 10 -10 10 -5 0
-10 -4 -10 -10z"/>
<path d="M4249 4501 c10 -6 11 -13 2 -29 -20 -37 -12 -48 10 -13 20 34 15 51
-16 51 -5 0 -4 -4 4 -9z"/>
<path d="M4312 4428 c-9 -25 -9 -34 1 -40 17 -11 27 -10 27 2 0 6 -4 10 -8 10
-5 0 -7 14 -4 30 6 39 -1 38 -16 -2z"/>
<path d="M1805 4360 c3 -5 8 -10 11 -10 2 0 4 5 4 10 0 6 -5 10 -11 10 -5 0
-7 -4 -4 -10z"/>
<path d="M4330 4345 c0 -8 5 -15 10 -15 6 0 10 7 10 15 0 8 -4 15 -10 15 -5 0
-10 -7 -10 -15z"/>
<path d="M2230 4320 c0 -5 5 -10 11 -10 5 0 7 5 4 10 -3 6 -8 10 -11 10 -2 0
-4 -4 -4 -10z"/>
<path d="M3650 4321 c0 -17 18 -21 24 -6 3 9 0 15 -9 15 -8 0 -15 -4 -15 -9z"/>
<path d="M3640 4275 c1 -26 2 -28 11 -12 8 14 8 22 0 30 -8 8 -11 3 -11 -18z"/>
<path d="M4300 4190 c0 -5 5 -10 10 -10 6 0 10 5 10 10 0 6 -4 10 -10 10 -5 0
-10 -4 -10 -10z"/>
<path d="M3801 4164 c0 -11 3 -14 6 -6 3 7 2 16 -1 19 -3 4 -6 -2 -5 -13z"/>
<path d="M3797 4104 c-4 -4 -7 -17 -7 -28 1 -19 1 -20 11 -3 11 19 8 43 -4 31z"/>
<path d="M3777 4020 c-3 -11 -2 -20 3 -20 4 0 10 9 13 20 3 11 2 20 -3 20 -4
0 -10 -9 -13 -20z"/>
<path d="M2527 4010 c-3 -11 -1 -20 4 -20 5 0 9 9 9 20 0 11 -2 20 -4 20 -2 0
-6 -9 -9 -20z"/>
<path d="M3766 3968 c-19 -27 -21 -59 -3 -52 16 6 38 62 27 69 -5 3 -16 -5
-24 -17z"/>
<path d="M3020 3920 c0 -5 7 -10 16 -10 8 0 12 5 9 10 -3 6 -10 10 -16 10 -5
0 -9 -4 -9 -10z"/>
<path d="M2747 3885 c-4 -8 -2 -17 3 -20 6 -4 10 3 10 14 0 25 -6 27 -13 6z"/>
<path d="M2632 3870 c0 -14 2 -19 5 -12 2 6 2 18 0 25 -3 6 -5 1 -5 -13z"/>
<path d="M3046 3795 c-47 -67 -54 -81 -36 -70 22 13 100 124 91 129 -5 4 -30
-23 -55 -59z"/>
<path d="M3180 3710 c0 -5 5 -10 10 -10 6 0 10 5 10 10 0 6 -4 10 -10 10 -5 0
-10 -4 -10 -10z"/>
<path d="M1685 3660 c-11 -4 -29 -6 -40 -3 -16 3 -29 -7 -52 -39 -16 -24 -34
-54 -38 -68 -4 -14 -15 -33 -24 -43 -15 -17 -14 -20 4 -33 10 -8 27 -14 37
-14 10 0 18 -3 18 -7 0 -5 30 -8 66 -8 42 1 72 -4 80 -12 7 -7 19 -13 27 -13
8 0 43 -9 77 -20 71 -23 80 -24 80 -10 0 6 -7 10 -15 10 -21 0 -58 39 -51 55
6 17 -32 27 -73 19 -20 -4 -31 -2 -31 5 0 6 10 10 22 8 14 -1 23 4 26 16 2 10
-3 17 -12 17 -9 0 -16 -4 -16 -9 0 -14 -32 -23 -43 -12 -6 6 2 16 19 27 16 10
33 24 37 31 4 7 20 12 35 12 17 -1 20 -3 10 -6 -23 -6 -22 -9 1 -32 20 -20 20
-19 40 12 16 25 21 28 26 16 4 -11 14 -14 31 -11 13 2 30 0 37 -6 9 -8 21 -3
45 18 35 31 52 30 86 -2 11 -10 26 -18 33 -18 7 0 13 -4 13 -10 0 -5 7 -10 15
-10 13 0 14 4 5 20 -7 14 -7 20 0 20 5 0 10 5 10 11 0 8 -12 10 -35 6 -19 -3
-35 -2 -35 4 0 5 8 9 17 9 13 0 14 3 5 12 -14 14 -65 20 -72 8 -3 -5 -18 -10
-33 -12 -16 -3 -33 -11 -39 -19 -7 -10 -8 -1 -3 31 4 33 3 42 -5 34 -6 -6 -12
-21 -13 -33 -1 -11 -2 -21 -3 -21 -9 0 -58 31 -67 43 -7 8 -28 18 -49 21 -34
6 -36 5 -31 -16 6 -22 5 -22 -13 -6 -12 10 -28 15 -40 12 -14 -4 -23 0 -27 10
-7 18 -13 18 -42 6z m25 -30 c0 -5 -2 -10 -4 -10 -3 0 -8 5 -11 10 -3 6 -1 10
4 10 6 0 11 -4 11 -10z m160 0 c0 -5 -2 -10 -4 -10 -3 0 -8 5 -11 10 -3 6 -1
10 4 10 6 0 11 -4 11 -10z"/>
<path d="M1422 3595 c-15 -17 -23 -40 -23 -68 -2 -67 -2 -66 39 -60 47 7 62
22 72 70 5 21 10 47 13 58 4 16 0 21 -18 23 -13 1 -27 -3 -30 -9 -5 -7 -11 -7
-19 0 -9 8 -19 4 -34 -14z"/>
<path d="M1170 3550 c-8 -5 -25 -10 -37 -10 -12 0 -37 -9 -56 -20 -53 -31 -94
-41 -101 -24 -6 16 -35 8 -53 -15 -9 -13 -16 -14 -31 -4 -11 6 -29 9 -41 6
-12 -3 -21 -1 -21 6 0 20 -20 12 -30 -11 -7 -18 -9 -19 -9 -5 -2 33 -20 17
-53 -48 -18 -36 -44 -77 -58 -92 -28 -31 -30 -40 -17 -66 8 -18 10 -18 34 5
13 12 26 22 29 21 2 -1 11 0 20 4 11 4 12 8 4 13 -9 5 -6 10 9 15 11 3 21 11
21 16 0 5 17 9 38 9 22 0 61 7 88 16 56 18 71 22 207 58 54 15 102 24 107 21
5 -3 11 -1 15 5 3 5 17 10 29 10 26 0 53 25 37 34 -5 3 -16 3 -24 0 -15 -5
-31 11 -32 31 -1 6 -6 9 -13 7 -7 -1 -15 5 -18 13 -7 17 -22 19 -44 5z m-330
-110 c0 -5 -4 -10 -10 -10 -5 0 -10 5 -10 10 0 6 5 10 10 10 6 0 10 -4 10 -10z
m187 -3 c0 -9 -13 -14 -34 -15 -38 -2 -42 5 -10 18 32 13 44 12 44 -3z m-197
-31 c0 -11 -19 -15 -25 -6 -3 5 1 10 9 10 9 0 16 -2 16 -4z"/>
<path d="M1288 3536 c-3 -14 -1 -26 4 -26 14 0 22 30 11 41 -7 7 -12 2 -15
-15z"/>
<path d="M4190 3550 c0 -5 5 -10 10 -10 6 0 10 5 10 10 0 6 -4 10 -10 10 -5 0
-10 -4 -10 -10z"/>
<path d="M2000 3534 c0 -9 5 -14 12 -12 18 6 21 28 4 28 -9 0 -16 -7 -16 -16z"/>
<path d="M2056 3518 c7 -11 54 -10 54 1 0 5 -13 9 -30 9 -16 -1 -27 -5 -24
-10z"/>
<path d="M2160 3489 c0 -5 5 -7 10 -4 6 3 10 8 10 11 0 2 -4 4 -10 4 -5 0 -10
-5 -10 -11z"/>
<path d="M638 3405 c-20 -26 -24 -55 -8 -55 10 0 40 52 40 70 0 17 -14 11 -32
-15z"/>
<path d="M595 3290 c-23 -25 -13 -37 14 -18 12 8 17 19 12 26 -5 9 -12 7 -26
-8z"/>
<path d="M633 3273 c-18 -7 -16 -33 2 -33 8 0 15 9 15 20 0 11 -1 20 -2 19 -2
0 -9 -3 -15 -6z"/>
<path d="M1850 3250 c0 -5 -6 -7 -12 -5 -7 3 -22 -8 -33 -24 -10 -16 -23 -27
-27 -25 -4 3 -5 -8 -2 -24 4 -21 2 -31 -10 -35 -11 -4 -16 -1 -16 9 0 15 -2
15 -24 1 -13 -9 -36 -28 -52 -42 -32 -29 -42 -31 -59 -8 -12 16 -14 16 -38 0
-23 -15 -26 -15 -42 3 -21 24 -53 26 -61 5 -4 -8 -18 -15 -34 -15 -30 0 -60
-22 -60 -44 0 -8 -7 -19 -15 -26 -13 -11 -16 -7 -22 20 -5 29 -7 31 -19 16
-10 -14 -16 -15 -31 -5 -28 17 -76 -8 -83 -42 -5 -25 -68 -89 -72 -72 0 4 -2
13 -3 18 -2 6 -3 18 -4 27 -1 15 -6 15 -33 6 -53 -16 -96 -38 -142 -68 -23
-16 -55 -32 -71 -36 -16 -4 -40 -13 -54 -20 -37 -20 -57 -19 -41 1 19 22 -3
44 -25 25 -8 -7 -15 -9 -15 -5 0 4 -6 3 -12 -3 -7 -6 -31 -13 -53 -17 -90 -15
-96 -17 -91 -31 3 -7 1 -16 -3 -19 -5 -2 -11 5 -14 16 -4 16 -11 19 -29 14
-13 -4 -31 -16 -41 -28 -19 -22 -33 -27 -82 -32 -16 -1 -29 -7 -28 -12 1 -5
-7 -14 -18 -21 -11 -7 -19 -8 -19 -2 0 22 -19 8 -39 -30 -28 -54 -27 -60 14
-60 24 0 35 5 35 15 0 8 5 15 10 15 14 0 13 -8 -7 -40 -11 -19 -28 -31 -50
-35 -40 -7 -40 -32 0 -27 21 3 29 -2 37 -22 9 -25 27 -27 55 -5 6 4 30 9 55
11 46 3 59 -10 37 -39 -6 -9 -6 -13 2 -13 6 0 11 5 11 10 0 6 9 10 21 10 15 0
19 -4 15 -16 -5 -14 -4 -15 9 -4 11 9 22 9 47 1 33 -12 33 -11 -14 33 -26 24
-53 46 -60 48 -11 4 -11 8 0 21 8 9 11 21 7 26 -6 10 52 70 68 71 5 0 5 -9 2
-20 -10 -31 8 -23 34 15 19 28 30 35 57 35 19 0 34 -4 34 -9 0 -5 10 -11 23
-15 22 -5 39 -35 51 -88 4 -16 13 -28 21 -28 8 0 22 -12 32 -27 10 -16 35 -46
57 -67 49 -49 89 -53 131 -13 l29 26 23 -21 c13 -12 26 -18 30 -14 4 4 1 11
-7 16 -13 8 -12 10 3 10 9 0 17 5 17 10 0 16 86 54 105 47 9 -4 13 -12 9 -18
-4 -8 -3 -9 4 -5 8 5 12 -2 12 -21 0 -19 -10 -35 -30 -52 -17 -13 -30 -29 -30
-37 0 -8 -5 -14 -11 -14 -6 0 -9 -8 -7 -18 4 -15 -1 -18 -29 -17 -78 2 -34
-38 58 -54 87 -15 134 -14 147 2 6 7 25 12 41 11 17 -1 48 4 70 12 45 15 171
103 171 119 0 6 18 28 40 50 26 26 49 62 67 109 45 120 64 129 145 69 51 -38
69 -55 181 -170 33 -35 64 -63 69 -63 4 0 8 -12 8 -26 0 -14 -4 -23 -10 -19
-5 3 -11 -1 -11 -9 -1 -9 -3 -20 -4 -26 -1 -5 -3 -14 -4 -20 0 -5 -7 -9 -13
-7 -7 1 -13 -5 -13 -13 0 -10 8 -14 27 -12 25 2 34 -16 15 -34 -4 -4 -7 -18
-7 -31 0 -16 -6 -23 -18 -23 -11 0 -34 -8 -53 -17 -27 -13 -59 -17 -146 -16
-96 1 -114 -1 -123 -15 -5 -9 -10 -12 -10 -6 0 6 -24 12 -57 13 -105 3 -130 6
-146 19 -12 11 -26 10 -71 -2 -31 -8 -53 -10 -50 -5 10 17 -102 14 -123 -3
-17 -14 -5 -31 18 -25 11 3 17 1 13 -4 -3 -5 2 -9 10 -9 9 0 16 -4 16 -10 0
-5 7 -10 15 -10 8 0 15 -3 15 -8 0 -4 10 -12 23 -17 14 -6 27 -27 37 -57 20
-62 30 -72 58 -52 12 8 22 22 22 31 0 13 -3 13 -15 3 -23 -19 -44 3 -28 28 6
10 9 31 6 46 -5 26 -4 28 18 21 13 -4 31 -16 39 -26 9 -11 23 -17 35 -14 11 3
25 2 30 -2 21 -16 53 -69 60 -100 8 -37 22 -50 37 -35 8 8 7 16 -2 27 -11 13
-9 15 9 15 17 0 21 4 17 18 -4 12 4 22 25 34 30 18 31 18 72 -10 67 -46 73
-48 49 -18 -12 16 -22 35 -22 42 0 8 -8 14 -18 14 -22 0 -58 35 -45 43 12 8
48 2 106 -17 26 -8 54 -13 62 -10 8 3 28 -1 45 -9 16 -9 32 -12 35 -7 3 5 0
10 -7 12 -7 3 -9 12 -5 22 5 13 11 15 20 9 6 -6 25 -13 40 -17 l29 -7 -26 27
c-20 23 -23 31 -14 48 11 20 11 20 19 1 4 -11 8 -17 8 -14 1 4 19 3 41 -1 22
-4 37 -3 34 1 -3 5 -12 9 -20 9 -8 0 -12 5 -9 10 3 6 15 10 26 10 11 0 17 4
14 10 -4 6 6 7 25 4 17 -4 30 -2 30 3 0 17 -13 23 -27 12 -10 -9 -13 -8 -13 1
0 8 -8 10 -25 6 -33 -8 -33 11 1 26 24 11 24 12 5 22 -20 11 -20 12 5 44 14
17 31 32 38 32 15 0 103 -77 96 -83 -3 -2 -16 -10 -29 -17 -34 -17 -7 -31 33
-17 44 15 55 35 49 84 -4 34 -2 43 10 43 11 0 15 7 12 21 -3 15 0 19 10 15 8
-3 15 -1 15 4 0 5 10 11 23 13 16 3 13 5 -10 6 -18 0 -33 5 -33 10 0 5 53 7
118 5 138 -5 134 10 -5 19 -88 5 -161 26 -121 35 9 2 15 9 12 16 -3 7 7 18 21
26 21 11 32 12 58 2 20 -8 35 -8 41 -2 7 7 1 10 -17 10 -15 0 -27 5 -27 10 0
6 5 10 10 10 6 0 5 8 -2 19 -13 22 -30 18 -21 -4 3 -10 -1 -15 -12 -15 -10 0
-15 6 -13 18 2 9 -3 22 -12 29 -12 10 -8 12 28 13 23 0 42 5 42 10 0 9 -24 14
-60 12 -22 -1 -51 18 -45 29 6 8 -10 13 -42 12 -6 0 -9 5 -7 12 3 7 32 18 65
24 33 7 57 16 54 22 -4 5 -18 7 -33 3 -23 -5 -25 -4 -12 8 9 7 25 32 37 56 26
52 10 55 -37 7 -24 -24 -42 -34 -60 -33 -14 1 -31 -1 -37 -5 -6 -4 -22 -3 -35
2 -17 7 -18 10 -5 10 9 1 17 6 17 11 0 6 7 10 16 10 9 0 14 6 11 13 -2 6 -10
11 -16 9 -18 -4 -13 17 9 35 11 10 20 21 20 26 0 5 12 18 26 29 20 16 24 26
19 47 -4 14 -11 29 -17 32 -7 5 -5 17 5 38 8 17 13 31 10 31 -2 0 -24 -16 -47
-35 -24 -19 -50 -35 -60 -35 -18 0 -22 15 -6 25 6 3 10 10 10 16 0 18 -33 9
-69 -20 -33 -27 -91 -51 -91 -38 0 10 66 74 83 80 26 10 22 39 -5 35 -16 -2
-22 -9 -20 -20 2 -11 -3 -18 -13 -18 -9 0 -28 -9 -42 -20 -14 -11 -32 -20 -39
-20 -8 0 -14 9 -14 20 0 23 -18 27 -26 5 -8 -19 -50 -20 -57 -1 -3 7 0 19 6
25 15 15 18 43 6 57 -6 7 -4 24 6 48 8 20 12 36 8 36 -5 0 -30 -21 -57 -45
-46 -42 -76 -56 -76 -36 0 5 6 11 13 14 7 2 14 19 15 37 2 29 0 31 -20 25 -22
-7 -52 -29 -92 -69 -13 -13 -21 -15 -24 -8 -2 7 -8 10 -13 6 -5 -3 -9 0 -9 6
0 6 8 10 18 8 12 -2 16 3 15 17 -1 10 7 25 18 33 11 7 17 18 14 23 -8 12 -25
12 -25 -1z m90 -126 c0 -21 -17 -17 -23 5 -3 14 -1 18 9 14 8 -3 14 -11 14
-19z m-118 -6 c-7 -7 -12 -8 -12 -2 0 14 12 26 19 19 2 -3 -1 -11 -7 -17z m88
-18 c0 -5 -5 -10 -11 -10 -5 0 -7 5 -4 10 3 6 8 10 11 10 2 0 4 -4 4 -10z
m-735 -204 c26 -19 13 -50 -17 -41 -35 11 -43 22 -28 40 15 18 21 19 45 1z
m-471 -97 c-18 -20 -44 -26 -44 -10 0 12 43 40 53 34 5 -3 1 -14 -9 -24z m860
-104 c15 -14 31 -25 35 -25 4 0 18 -9 31 -20 l23 -20 -33 6 c-24 5 -31 4 -26
-4 9 -14 -13 -16 -47 -3 -16 6 -26 20 -31 41 -11 55 6 64 48 25z m-211 -92
c-3 -8 0 -19 8 -23 9 -6 17 -1 26 18 10 21 11 22 7 5 -7 -28 -4 -28 39 -3 30
18 37 19 60 7 15 -8 25 -17 22 -21 -3 -3 1 -2 7 4 16 14 58 13 58 -1 0 -7 8
-18 18 -25 15 -11 12 -12 -19 -10 -31 3 -36 0 -32 -15 3 -11 9 -19 14 -19 5 0
9 -5 9 -11 0 -6 -7 -9 -15 -5 -18 7 -65 -31 -66 -53 0 -10 -4 -8 -9 7 -14 32
-20 27 -15 -13 4 -26 1 -35 -10 -35 -8 0 -15 8 -15 18 0 9 -12 25 -25 35 -25
18 -25 18 -25 -8 l0 -27 -30 30 c-16 17 -30 37 -30 45 0 8 -9 21 -20 28 -17
12 -18 18 -8 50 9 27 18 37 34 37 16 0 21 -5 17 -15z m292 7 c3 -5 1 -10 -4
-10 -6 0 -11 5 -11 10 0 6 2 10 4 10 3 0 8 -4 11 -10z m-295 -195 c-7 -9 -10
-18 -7 -21 3 -3 -4 -15 -15 -26 -19 -19 -21 -19 -37 -4 -14 14 -14 18 -1 26 8
5 17 7 22 4 4 -2 12 5 18 16 6 11 16 20 22 20 7 0 6 -5 -2 -15z m886 -13 c-3
-20 -49 -47 -54 -31 -2 5 3 21 12 34 17 26 46 24 42 -3z m-666 -182 c0 -5 -12
-10 -26 -10 -14 0 -23 4 -19 10 3 6 15 10 26 10 10 0 19 -4 19 -10z m627 4
c-3 -3 -12 -4 -19 -1 -8 3 -5 6 6 6 11 1 17 -2 13 -5z m-332 -39 c-16 -8 -41
-14 -55 -14 l-25 0 25 14 c14 8 39 14 55 14 l30 -1 -30 -13z m-235 -15 c0 -5
-2 -10 -4 -10 -3 0 -8 5 -11 10 -3 6 -1 10 4 10 6 0 11 -4 11 -10z m120 -90
c0 -5 -4 -10 -10 -10 -5 0 -10 5 -10 10 0 6 5 10 10 10 6 0 10 -4 10 -10z"/>
<path d="M1450 2530 c0 -5 5 -10 10 -10 6 0 10 5 10 10 0 6 -4 10 -10 10 -5 0
-10 -4 -10 -10z"/>
<path d="M2120 3224 c0 -8 5 -12 10 -9 6 3 10 10 10 16 0 5 -4 9 -10 9 -5 0
-10 -7 -10 -16z"/>
<path d="M556 3212 c-3 -6 1 -13 10 -16 23 -9 28 -2 10 13 -8 7 -17 8 -20 3z"/>
<path d="M551 3144 c0 -11 3 -14 6 -6 3 7 2 16 -1 19 -3 4 -6 -2 -5 -13z"/>
<path d="M522 2939 c2 -6 8 -10 13 -10 5 0 11 4 13 10 2 6 -4 11 -13 11 -9 0
-15 -5 -13 -11z"/>
<path d="M815 2899 c-4 -6 -4 -13 -1 -16 8 -8 36 5 36 17 0 13 -27 13 -35 -1z"/>
<path d="M510 2860 c0 -5 5 -10 10 -10 6 0 10 5 10 10 0 6 -4 10 -10 10 -5 0
-10 -4 -10 -10z"/>
<path d="M455 2499 c-11 -17 1 -21 15 -4 8 9 8 15 2 15 -6 0 -14 -5 -17 -11z"/>
<path d="M1096 2493 c-3 -3 -3 -17 0 -30 4 -16 0 -31 -12 -44 -16 -17 -16 -22
-4 -29 28 -18 37 -10 43 37 5 44 -11 82 -27 66z"/>
<path d="M1147 2284 c-21 -11 -32 -12 -42 -4 -17 14 -23 -5 -15 -45 5 -26 7
-28 13 -10 10 29 70 26 98 -4 19 -20 22 -21 38 -7 10 9 23 16 30 16 17 0 9 21
-12 34 -12 8 -23 7 -38 -2 -26 -17 -37 -7 -21 18 10 17 10 20 -5 20 -10 -1
-31 -8 -46 -16z"/>
<path d="M890 2280 c-8 -5 -11 -12 -7 -16 4 -4 13 -2 19 4 6 6 10 14 7 16 -2
3 -11 1 -19 -4z"/>
<path d="M1360 2265 c0 -9 5 -15 11 -13 6 2 11 8 11 13 0 5 -5 11 -11 13 -6 2
-11 -4 -11 -13z"/>
<path d="M1960 2111 c0 -5 7 -11 14 -14 10 -4 13 -1 9 9 -6 15 -23 19 -23 5z"/>
<path d="M2005 2073 c11 -3 24 -10 28 -17 6 -7 7 -6 4 4 -2 8 -14 16 -28 17
-19 1 -20 1 -4 -4z"/>
</g>
</svg>
